# xmcd
#
# Track frame offsets:
#	150
#	1365
#	2405
#	3673
#	4915
#	6388
#	8050
#	26513
#	38600
#	53108
#	63625
#	90235
#	96853
#	117575
#	133050
#	143223
#	179795
#	193085
#	241060
#	252750
#
# Disc length: 3475 seconds
#
# Revision: 0
# Processed by: cddbd v1.4PL0 Copyright (c) Steve Scherf et al.
# Submitted via: audiograbber 1.80.04
#
DISCID=fe0d9114
DTITLE=RCA - Home Video Album
DYEAR=1989
DGENRE=Comedy
TTITLE0=Fox Fanfare (Comic Version)
TTITLE1=MGM Fanfare
TTITLE2=Universal Pictures
TTITLE3=Selznick International Pictures Fanfare
TTITLE4=Warner Bros. Fanfare (Steiner)
TTITLE5=20th Century-Fox Fanfare (Cinemascope Extention)
TTITLE6=Street Scene
TTITLE7=Holiday For Strings
TTITLE8=Fiddle-Faddle
TTITLE9=The Syncopated Clock
TTITLE10=Laura
TTITLE11=Since You Went Away-Main Title
TTITLE12=Now , Voyager-Love Scene and Finale
TTITLE13=Peyton Place-Original Main Title
TTITLE14=Theme From-A Summer Place
TTITLE15=The Big Sky-Prelude
TTITLE16=High Noon  (Do Not Forsake Me)
TTITLE17=The Thing
TTITLE18=Kitten On The Strings
TTITLE19=Fanfare And The Big Chase
EXTD=
EXTT0=
EXTT1=
EXTT2=
EXTT3=
EXTT4=
EXTT5=
EXTT6=
EXTT7=
EXTT8=
EXTT9=
EXTT10=
EXTT11=
EXTT12=
EXTT13=
EXTT14=
EXTT15=
EXTT16=
EXTT17=
EXTT18=
EXTT19=
PLAYORDER=
